<svg xmlns="http://www.w3.org/2000/svg" width="44" height="59" xmlns:v="https://vecta.io/nano"><path d="M19.798 51.333h-.72c-.649 0-1.176.486-1.176 1.084v3.75h-.447c-.747 0-1.355.56-1.355 1.25s.608 1.25 1.355 1.25h2.163c.747 0 1.355-.561 1.355-1.25 0-.057-.006-.111-.014-.165a1.04 1.04 0 0 0 .014-.169v-4.666c0-.598-.526-1.084-1.175-1.084zm5.947 4.834h-.447v-3.75c0-.598-.527-1.084-1.175-1.084h-.721c-.648 0-1.175.486-1.175 1.084v4.666c0 .058.005.115.014.17a1.047 1.047 0 0 0-.014.164c0 .689.608 1.25 1.355 1.25h2.163c.747 0 1.355-.561 1.355-1.25s-.608-1.25-1.355-1.25zm-13.908-7.584c-.289 0-.587-.024-.895-.076-.556-.094-.934-.65-.846-1.24s.607-.994 1.168-.898c2.782.472 4.196-2.632 4.21-2.664.24-.54.847-.773 1.357-.519s.728.9.489 1.44c-.645 1.453-2.56 3.957-5.483 3.957zm20.326 0c.289 0 .587-.024.895-.076.556-.094.934-.65.846-1.24s-.607-.994-1.168-.898c-2.782.472-4.196-2.632-4.21-2.664-.24-.54-.847-.773-1.357-.519s-.728.9-.489 1.44c.645 1.453 2.56 3.957 5.483 3.957z" fill="#4dc8e9"/><path d="M16.205 49.036l.208.843.04.168c.114.472.299 1.077.724 1.56.284.32.643.6 1.068.83.89.484 1.992.73 3.274.73l.358-.008c1.234-.056 2.362-.382 3.264-.943.434-.27.79-.592 1.059-.958.242-.33.415-.717.56-1.255l.151-.634.086-.37.03-.127.073-.289-.618.19c-4.493 1.302-8.018.605-9.76.053l-.622-.216.105.426" fill="#eaeaea"/><path d="m27.507 49.52.017-.01-.016.004-.001.007z" fill="#dbdbdb"/><path d="M16.171 49.555c.592.388 5.434 1.746 10.784-.031l.017-.028 1.436-6.05a.305.305 0 0 0-.05-.25.27.27 0 0 0-.217-.113h-13.2a.271.271 0 0 0-.217.113.305.305 0 0 0-.049.25l1.466 6.069.03.04z" fill="#d6d6d6"/><path d="M25.667 38.5c0 .506-.329.917-.734.917h-5.866c-.405 0-.734-.411-.734-.917s.329-.917.734-.917h5.866c.405 0 .734.411.734.917z" fill="#4d4d4d"/><g fill="#4dc8e9"><path d="M20.167 10.083h2.75v2.75h-2.75z"/><ellipse cx="22" cy="5.042" rx="5.5" ry="5.042"/></g><path d="M25.667 5.5a3.666 3.666 0 1 1-7.333 0 3.666 3.666 0 0 1 7.333 0" fill="#fff"/><path d="M23.086 3.879c.887.266 1.535 1.069 1.535 2.018 0 .138-.015.274-.04.405l-.004.018a2.38 2.38 0 0 1-.446 1.009l-.004.004a2.77 2.77 0 0 0 .623-1.748c0-1.566-1.306-2.835-2.919-2.835-.734 0-1.405.263-1.918.698l-.006.005a1.94 1.94 0 0 0-.534 2.13l.004.01c.202.433.651.731 1.172.731.71 0 1.287-.558 1.287-1.248l-.003-.539a.65.65 0 0 1 .352-.572l.001-.002a1.165 1.165 0 0 1 .899-.084h.001" fill="#ed212f"/><path d="M24.626 5.397l-.004-.01a1.286 1.286 0 0 0-1.171-.74c-.712 0-1.287.565-1.287 1.26l.003.544c0 .25-.143.466-.351.577l-.003.002a1.144 1.144 0 0 1-.897.087l-.002-.001a2.136 2.136 0 0 1-1.535-2.037 2.04 2.04 0 0 1 .04-.408l.002-.019a2.4 2.4 0 0 1 .426-.985l-.044.057-.064.087-.131.21-.036.074a2.111 2.111 0 0 0-.08.16l-.037.092a2.3 2.3 0 0 0-.057.153l-.031.098-.043.162-.022.096-.028.186-.01.08-.014.272a3.1 3.1 0 0 0 .014.274l.002.027.041.26.006.03a3.062 3.062 0 0 0 .07.261 2.912 2.912 0 0 0 2.784 2.004 2.94 2.94 0 0 0 2.004-.785c.356-.359.579-.846.579-1.386a1.93 1.93 0 0 0-.124-.682" fill="#03539b"/><path d="M6.548 38.856l-.879-20.881.04-.01-.052-.274-.051-.274c-3.432.642-5.834 3.948-5.589 7.692L.522 32.8c.232 3.534 2.702 6.254 6.008 6.615l.03-.277.03-.277-.042-.006zm31.846-21.439l-.104.548.04.01-.878 20.881-.043.007.061.554c3.306-.362 5.776-3.082 6.008-6.616l.505-7.692c.245-3.743-2.158-7.05-5.59-7.692z" fill="#4dc8e9"/><path d="M20.522 11.917c-11.066.225-16.856 2.58-16.855 4.803l1.219 23.829C5.099 42.933 13.635 44 21.999 44s16.9-1.067 17.115-3.462l1.22-23.843c0-2.205-5.78-4.55-16.842-4.778h-2.97z" fill="#eaeaea"/><path d="M34.833 35.17c0 3.358-2.76 6.08-6.167 6.08H13.501c-3.407 0-6.168-2.722-6.168-6.08v-7.09c0-3.358 2.761-6.08 6.168-6.08h15.165c3.406 0 6.167 2.722 6.167 6.08v7.09z" fill="#fff"/><path d="M16.197 29.792c0 1.265-.753 2.291-1.682 2.291s-1.682-1.026-1.682-2.291.753-2.292 1.682-2.292 1.682 1.026 1.682 2.292zm14.97 0c0 1.265-.753 2.291-1.682 2.291s-1.682-1.026-1.682-2.291.753-2.292 1.682-2.292 1.682 1.026 1.682 2.292z" fill="#000"/><path d="M11.917 33c0 1.012-1.231 1.833-2.75 1.833s-2.75-.82-2.75-1.833 1.23-1.833 2.75-1.833 2.75.82 2.75 1.833zm25.666 0c0 1.012-1.23 1.833-2.75 1.833s-2.75-.82-2.75-1.833 1.232-1.833 2.75-1.833 2.75.82 2.75 1.833z" fill="#ff7bac" opacity=".4"/><path d="M21.984 36.667c-1.143 0-2.003-.347-2.628-1.062a.45.45 0 0 1 .007-.588.348.348 0 0 1 .53.008c.483.552 1.147.809 2.091.809.98 0 1.706-.291 2.098-.842a.35.35 0 0 1 .526-.069.45.45 0 0 1 .061.585c-.376.529-1.146 1.159-2.685 1.159z" fill="#3f2f37"/></svg>