<?xml version="1.0" encoding="UTF-8"?>
<svg width="50px" height="53px" viewBox="0 0 50 53" version="1.1" xmlns="http://www.w3.org/2000/svg" xmlns:xlink="http://www.w3.org/1999/xlink">
    <title>event</title>
    <g id="Page-1" stroke="none" stroke-width="1" fill="none" fill-rule="evenodd">
        <g id="floating" transform="translate(-2535.000000, -1157.000000)" fill-rule="nonzero">
            <g transform="translate(2528.000000, 1146.000000)" id="floating-기본">
                <g id="event" transform="translate(0.000000, 0.000000)">
                    <g transform="translate(7.000000, 11.000000)">
                        <g id="2428113" transform="translate(3.636364, 13.636364)">
                            <path d="M20.9090909,6.43355942 C20.9090909,8.13986535 20.2312615,9.77628424 19.0247186,10.9828161 C17.8181756,12.1893479 16.1817554,12.8671329 14.4754583,12.8671329 C10.9223272,12.8671329 8.04195804,9.98670874 8.04195804,6.43355942 C8.04195804,2.88041558 10.9223327,0 14.4754583,0 C16.181753,0 17.8181711,0.677783017 19.0247136,1.88431182 C20.2312561,3.09084063 20.9090909,4.72725592 20.9090909,6.43355942" id="Path" fill="#CEE4FD"></path>
                            <path d="M33.7762238,6.43355942 C33.7762238,9.98670874 30.8958249,12.8671329 27.3426573,12.8671329 C23.7894897,12.8671329 20.9090909,9.98670874 20.9090909,6.43355942 C20.9090909,2.88041558 23.7894952,0 27.3426573,0 C30.8958195,0 33.7762238,2.88041558 33.7762238,6.43355942" id="Path" fill="#CEE4FD"></path>
                            <path d="M20.5070584,4.02097902 C18.5658037,4.02097902 17.00305,5.59077901 17.00305,7.54071764 L17.00305,8.56176835 L24.010936,8.56176835 L24.010936,7.54071764 C24.010936,5.59077901 22.4481823,4.02097902 20.5070584,4.02097902 Z M3.21678322,19.0660545 L3.21678322,43.71561 C3.21678322,46.1761204 4.75901742,48.1569636 6.67478597,48.1569636 L34.3392,48.1569636 C36.2549686,48.1569636 37.7972028,46.1761204 37.7972028,43.71561 L37.7972028,19.0660545 L3.21678322,19.0660545 Z" id="Shape" fill="#B0D1F4"></path>
                            <path d="M3.48484091,8.04195804 L38.33325,8.04195804 C40.263864,8.04195804 41.8181818,9.59020613 41.8181818,11.5133668 L41.8181818,15.8292905 C41.8181818,17.7524512 40.263864,19.3006993 38.33325,19.3006993 L3.48484091,19.3006993 C1.55422564,19.3006993 0,17.7524512 0,15.8292905 L0,11.5133668 C0,9.59020613 1.55422564,8.04195804 3.48484091,8.04195804 Z" id="Path" fill="#00A1FF"></path>
                            <polygon id="Path" fill="#3D6CF2" points="16.8881119 9.09090909 16.8881119 48.1818182 24.1258741 48.1818182 24.1258741 9.09090909"></polygon>
                            <polygon id="Path" fill="#FFFFFF" points="16.8881119 8.04195804 16.8881119 19.3006993 24.1258741 19.3006993 24.1258741 8.04195804"></polygon>
                        </g>
                        <g id="이벤트" transform="translate(13.201000, 1.476000)" fill="#FFFFFF">
                            <path d="M5.445,0 L5.445,8.316 L6.633,8.316 L6.633,0 L5.445,0 Z M2.178,0.585 C0.927,0.585 0,1.719 0,3.537 C0,5.364 0.927,6.507 2.178,6.507 C3.429,6.507 4.356,5.364 4.356,3.537 C4.356,1.719 3.429,0.585 2.178,0.585 Z M2.178,1.656 C2.79,1.656 3.213,2.313 3.213,3.537 C3.213,4.77 2.79,5.427 2.178,5.427 C1.566,5.427 1.143,4.77 1.143,3.537 C1.143,2.313 1.566,1.656 2.178,1.656 Z" id="Shape"></path>
                            <path d="M15.111,0.009 L13.986,0.009 L13.986,6.264 L15.111,6.264 L15.111,0.009 Z M10.521,3.897 L9.45,3.897 L9.45,2.817 L10.521,2.817 L10.521,3.897 Z M11.619,3.249 L12.321,3.249 L12.321,6.021 L13.428,6.021 L13.428,0.144 L12.321,0.144 L12.321,2.295 L11.619,2.295 L11.619,0.639 L10.521,0.639 L10.521,1.908 L9.45,1.908 L9.45,0.639 L8.334,0.639 L8.334,4.842 L11.619,4.842 L11.619,3.249 Z M10.719,7.209 L10.719,5.454 L9.531,5.454 L9.531,8.154 L15.318,8.154 L15.318,7.209 L10.719,7.209 Z" id="Shape"></path>
                            <path d="M23.031,4.284 L18.414,4.284 L18.414,3.357 L22.779,3.357 L22.779,2.439 L18.414,2.439 L18.414,1.566 L22.968,1.566 L22.968,0.612 L17.208,0.612 L17.208,5.22 L23.031,5.22 L23.031,4.284 Z M16.326,6.381 L16.326,7.344 L23.832,7.344 L23.832,6.381 L16.326,6.381 Z" id="Shape"></path>
                        </g>
                    </g>
                </g>
            </g>
        </g>
    </g>
</svg>