<svg width="20" height="20" viewBox="0 0 20 20" xmlns="http://www.w3.org/2000/svg">
    <g fill="none" fill-rule="evenodd">
        <path d="M17.68 10.182c0-.567-.05-1.113-.145-1.637H10v3.095h4.305a3.68 3.68 0 0 1-1.596 2.415v2.007h2.586c1.512-1.393 2.385-3.444 2.385-5.88z" fill="#4285F4"/>
        <path d="M10 18c2.16 0 3.97-.716 5.295-1.938l-2.586-2.007c-.716.48-1.633.763-2.709.763-2.084 0-3.847-1.407-4.476-3.298H2.85v2.073A7.997 7.997 0 0 0 10 18z" fill="#34A853"/>
        <path d="M5.524 11.52c-.16-.48-.251-.993-.251-1.52s.09-1.04.25-1.52V6.407H2.852A7.997 7.997 0 0 0 2 10c0 1.29.31 2.513.85 3.593l2.674-2.073z" fill="#FBBC05"/>
        <path d="M10 5.182c1.175 0 2.23.403 3.058 1.196l2.295-2.294C13.967 2.793 12.156 2 10 2a7.997 7.997 0 0 0-7.15 4.407L5.525 8.48C6.153 6.59 7.916 5.182 10 5.182z" fill="#EA4335"/>
        <path d="M2 2h16v16H2z"/>
    </g>
</svg>
