<svg width="153" height="46" viewBox="0 0 153 46" xmlns="http://www.w3.org/2000/svg" xmlns:xlink="http://www.w3.org/1999/xlink">
    <defs>
        <path id="vsn13t2s9a" d="M0 46h153V0H0z"/>
    </defs>
    <g fill="none" fill-rule="evenodd">
        <path d="M146.6 45.693H6.4c-3.366 0-6.095-2.746-6.095-6.133V6.44C.305 3.053 3.034.307 6.4.307h140.2c3.366 0 6.095 2.746 6.095 6.133v33.12c0 3.387-2.729 6.133-6.095 6.133" fill="#FFF"/>
        <path d="M146.6 45.693H6.4c-3.366 0-6.095-2.746-6.095-6.133V6.44C.305 3.053 3.034.307 6.4.307h140.2c3.366 0 6.095 2.746 6.095 6.133v33.12c0 3.387-2.729 6.133-6.095 6.133z" stroke="#BBBDBF" stroke-width=".61" stroke-linejoin="bevel"/>
        <path d="M13.137 32.817a.235.235 0 0 0-.175.16l-.006.023-.544 2.13-.625-2.313h-.53l-.63 2.318-.52-2.121-.01-.04a.228.228 0 0 0-.217-.157h-.396l.794 2.93.013.05v.003a.23.23 0 0 0 .212.14h.361l.656-2.403.63 2.403h.353a.23.23 0 0 0 .21-.139l.001-.001.015-.052v-.001l.805-2.93h-.397zM14.611 35.499c.08 0 .156-.012.225-.035a.455.455 0 0 0 .297-.303.87.87 0 0 0 .044-.29v-.265c0-.228-.052-.39-.153-.485a.581.581 0 0 0-.413-.142.579.579 0 0 0-.411.142c-.102.096-.154.257-.154.485v.265c0 .113.015.209.044.29a.453.453 0 0 0 .298.303.693.693 0 0 0 .223.035m0 .476c-.169 0-.322-.025-.459-.073a.977.977 0 0 1-.349-.213.945.945 0 0 1-.224-.344 1.27 1.27 0 0 1-.08-.466v-.281c0-.176.026-.332.08-.468a.953.953 0 0 1 .224-.342.976.976 0 0 1 .35-.212c.136-.05.289-.074.458-.074.167 0 .32.025.458.074a.97.97 0 0 1 .351.212c.097.093.171.207.224.342.054.136.08.292.08.468v.281c0 .173-.026.329-.08.466a.944.944 0 0 1-.224.344.972.972 0 0 1-.351.213 1.37 1.37 0 0 1-.458.073M17.405 33.515c-.06-.009-.12-.013-.18-.013a.718.718 0 0 0-.413.108.799.799 0 0 0-.252.29h-.008v-.346h-.292a.23.23 0 0 0-.23.23v2.157h.316a.23.23 0 0 0 .227-.207v-1.21a.535.535 0 0 1 .153-.383.483.483 0 0 1 .169-.11.573.573 0 0 1 .209-.04c.07 0 .126.006.172.014.047.008.09.021.13.038l.156-.493a.95.95 0 0 0-.157-.035M17.95 32.666a.23.23 0 0 0-.23.23v3.045h.315a.23.23 0 0 0 .229-.23v-3.045h-.314zM20.153 34.927a.66.66 0 0 1-.04.227.585.585 0 0 1-.11.187.494.494 0 0 1-.176.125.605.605 0 0 1-.24.045.42.42 0 0 1-.36-.166c-.081-.11-.122-.268-.122-.47v-.269c0-.2.04-.354.122-.467.083-.113.21-.169.382-.169.095 0 .176.015.244.043a.513.513 0 0 1 .167.11.458.458 0 0 1 .132.318v.486zm.22-2.26a.23.23 0 0 0-.23.218v.872a.527.527 0 0 0-.196-.167.997.997 0 0 0-.429-.088c-.143 0-.274.023-.39.072a.845.845 0 0 0-.491.528 1.326 1.326 0 0 0-.067.435v.42c0 .324.075.574.226.752.152.177.379.266.684.266.144 0 .277-.024.4-.071a.53.53 0 0 0 .282-.245h.013v.282h.284a.23.23 0 0 0 .228-.23v-3.045h-.315z" fill="#231F20"/>
        <path d="M20.687 35.71a.23.23 0 0 1-.228.23.23.23 0 0 1 0-.46.23.23 0 0 1 .228.23M23.81 35.484h-1.255v-.915h1.363v-.45h-1.363v-.842h1.227c.12 0 .22-.094.227-.214v-.245h-1.773a.23.23 0 0 0-.23.23v2.666c0 .127.103.23.23.23h1.804v-.23a.229.229 0 0 0-.23-.23M26.656 35.58l-.063-.103-.686-1.138.619-1.013.126-.206.184-.302h-.457a.272.272 0 0 0-.228.122l-.022.04-.554.991-.54-1.001-.007-.013a.274.274 0 0 0-.237-.14h-.502l.885 1.492-.665 1.128-.115.195-.183.311h.458a.279.279 0 0 0 .236-.13l.001-.003.012-.023.001-.001.604-1.104.626 1.11.002.002.009.015v.001c.049.08.136.133.236.133h.478l-.218-.363zM28.838 33.793c0 .182-.052.308-.156.378-.103.069-.246.103-.427.103h-.548v-.993h.596c.077 0 .149.008.216.02a.442.442 0 0 1 .17.07.331.331 0 0 1 .11.132.504.504 0 0 1 .039.213v.077zm.494-.437a.728.728 0 0 0-.192-.284.897.897 0 0 0-.33-.187 1.527 1.527 0 0 0-.482-.067h-.945a.23.23 0 0 0-.229.23v2.895h.324c.127 0 .23-.102.23-.23v-.97h.62c.182 0 .338-.026.47-.076a.979.979 0 0 0 .333-.204.804.804 0 0 0 .199-.299c.043-.115.065-.235.065-.363v-.09a.985.985 0 0 0-.063-.355zM30.922 35.484c.106 0 .205-.014.297-.04a.584.584 0 0 0 .243-.146.71.71 0 0 0 .16-.282c.04-.119.06-.267.06-.447v-.377c0-.18-.02-.328-.06-.446a.706.706 0 0 0-.16-.282.578.578 0 0 0-.243-.145 1.03 1.03 0 0 0-.297-.042c-.104 0-.202.014-.293.042a.572.572 0 0 0-.242.145.725.725 0 0 0-.165.282c-.04.118-.06.267-.06.446v.377c0 .18.02.328.06.447a.73.73 0 0 0 .165.282c.068.068.15.117.242.145.091.027.19.041.293.041m0-2.714c.175 0 .343.026.502.076.16.051.3.13.422.239.12.108.216.248.286.418.071.17.106.377.106.62v.515c0 .246-.035.454-.106.627-.07.171-.165.311-.284.418-.12.107-.26.185-.42.234-.159.05-.328.074-.506.074-.179 0-.348-.025-.507-.074-.16-.049-.3-.127-.42-.234a1.118 1.118 0 0 1-.284-.418 1.652 1.652 0 0 1-.106-.627v-.515c0-.243.035-.45.106-.62.07-.17.166-.31.287-.418.121-.11.261-.188.42-.239.16-.05.328-.076.504-.076M35.216 35.487h-1.268l.915-.928c.147-.146.259-.298.335-.452.076-.155.114-.317.114-.488v-.043a.81.81 0 0 0-.058-.306.673.673 0 0 0-.181-.256.91.91 0 0 0-.313-.176 1.401 1.401 0 0 0-.453-.064c-.16 0-.296.02-.413.064a1.193 1.193 0 0 0-.302.164 1.016 1.016 0 0 0-.212.214 2.71 2.71 0 0 0-.14.217l.415.273a1.26 1.26 0 0 1 .157-.221.695.695 0 0 1 .163-.135.548.548 0 0 1 .165-.065.844.844 0 0 1 .17-.017c.162 0 .277.034.344.102a.315.315 0 0 1 .101.228v.034c0 .044-.002.089-.008.134a.528.528 0 0 1-.048.152 1.195 1.195 0 0 1-.116.187 2.62 2.62 0 0 1-.212.242l-1.047 1.084-.034.034a.136.136 0 0 0-.015.022.27.27 0 0 0-.048.153v.307h2.202v-.23a.23.23 0 0 0-.213-.23M37.335 34.135c0-.18-.016-.324-.049-.433a.67.67 0 0 0-.13-.254.386.386 0 0 0-.185-.119.787.787 0 0 0-.432 0 .405.405 0 0 0-.19.12.661.661 0 0 0-.136.257c-.034.11-.052.253-.052.429v.494c0 .179.018.324.054.433a.67.67 0 0 0 .14.256c.058.06.123.101.195.122a.795.795 0 0 0 .431 0c.07-.02.13-.06.182-.12a.67.67 0 0 0 .126-.253c.03-.11.046-.256.046-.438v-.494zm.557.49c0 .445-.093.784-.28 1.018-.188.234-.47.352-.846.352-.371 0-.658-.119-.86-.356-.2-.237-.301-.575-.301-1.014v-.486c0-.439.1-.777.3-1.012.2-.235.483-.353.848-.353.368 0 .65.118.846.353.195.235.293.573.293 1.012v.486zM39.993 34.56c-.097-.128-.25-.21-.457-.248a.656.656 0 0 0 .358-.313.703.703 0 0 0 .071-.205c.013-.07.02-.136.02-.196v-.044a.715.715 0 0 0-.263-.566.908.908 0 0 0-.303-.158 1.29 1.29 0 0 0-.397-.056c-.224 0-.409.041-.552.124a1.24 1.24 0 0 0-.372.327l.376.294c.07-.074.145-.137.226-.186a.629.629 0 0 1 .322-.074.53.53 0 0 1 .309.08c.076.054.114.14.114.259v.034a.798.798 0 0 1-.02.185.323.323 0 0 1-.07.142.339.339 0 0 1-.144.091.751.751 0 0 1-.24.033h-.168a.229.229 0 0 0-.204.198v.278h.418c.2 0 .344.036.432.107.09.071.134.183.134.336v.056a.403.403 0 0 1-.138.325c-.092.079-.236.118-.431.118-.064 0-.123-.005-.177-.014a.865.865 0 0 1-.169-.045 1.154 1.154 0 0 1-.18-.089 2.883 2.883 0 0 1-.204-.139l-.271.434c.146.119.304.205.472.262.168.056.343.085.524.085.19 0 .356-.026.498-.077.143-.05.261-.117.355-.2a.822.822 0 0 0 .21-.291.882.882 0 0 0 .068-.343v-.065c0-.18-.05-.332-.147-.46M42.142 34.135c0-.18-.017-.324-.05-.433a.67.67 0 0 0-.13-.254.386.386 0 0 0-.185-.119.788.788 0 0 0-.432 0 .407.407 0 0 0-.19.12.67.67 0 0 0-.135.257c-.035.11-.052.253-.052.429v.494c0 .179.018.324.054.433.036.11.082.195.14.256.058.06.122.101.194.122a.794.794 0 0 0 .432 0c.069-.02.13-.06.181-.12a.652.652 0 0 0 .125-.253c.031-.11.048-.256.048-.438v-.494zm.556.49c0 .445-.093.784-.28 1.018-.187.234-.469.352-.846.352-.371 0-.658-.119-.859-.356-.201-.237-.302-.575-.302-1.014v-.486c0-.439.1-.777.3-1.012.2-.235.483-.353.848-.353.368 0 .65.118.846.353.196.235.293.573.293 1.012v.486zM13.526 39.836h.702c.214 0 .372-.044.474-.132.102-.087.153-.218.153-.39v-.09a.74.74 0 0 0-.034-.234.38.38 0 0 0-.117-.17.555.555 0 0 0-.22-.104 1.457 1.457 0 0 0-.34-.034h-.618v1.154zm0-2.422v1.029h.615c.19 0 .335-.035.438-.106.103-.07.155-.196.155-.38v-.073c0-.173-.05-.294-.15-.365-.099-.07-.256-.105-.47-.105h-.588zm-.26-.248h.867c.577 0 .865.238.865.714v.084a.774.774 0 0 1-.022.19.503.503 0 0 1-.21.304.671.671 0 0 1-.206.09.711.711 0 0 1 .407.202c.103.11.156.264.156.467v.1c0 .24-.072.43-.214.566-.142.136-.361.204-.659.204h-.985v-2.92zM16.543 39.877c.236 0 .412-.081.53-.243.117-.162.176-.426.176-.79v-1.678h.26v1.783c0 .405-.085.704-.255.895-.17.192-.407.288-.711.288-.308 0-.546-.096-.714-.288-.169-.191-.253-.49-.253-.895v-1.783h.26v1.677c0 .365.059.629.176.79.117.163.294.244.53.244M18.951 39.869c.106 0 .201-.014.285-.041a.665.665 0 0 0 .216-.111.477.477 0 0 0 .133-.162.416.416 0 0 0 .046-.189v-.085a.521.521 0 0 0-.03-.182.359.359 0 0 0-.11-.148.817.817 0 0 0-.216-.122 2.835 2.835 0 0 0-.358-.107 2.092 2.092 0 0 1-.398-.131.927.927 0 0 1-.257-.17.556.556 0 0 1-.136-.211.78.78 0 0 1-.04-.254v-.092a.682.682 0 0 1 .252-.535.886.886 0 0 1 .283-.153c.11-.036.229-.054.357-.054a1.4 1.4 0 0 1 .472.07c.13.048.243.108.336.177l-.124.231a1.072 1.072 0 0 0-.684-.218.866.866 0 0 0-.238.032.614.614 0 0 0-.198.095.505.505 0 0 0-.137.152.406.406 0 0 0-.05.203v.08a.364.364 0 0 0 .137.308c.05.04.116.079.199.114.082.035.186.067.31.097.175.044.322.09.437.14.116.05.208.107.276.172a.554.554 0 0 1 .144.218.877.877 0 0 1 .041.28v.093a.684.684 0 0 1-.064.296.748.748 0 0 1-.183.244.878.878 0 0 1-.295.165 1.45 1.45 0 0 1-1.32-.264l.137-.238c.136.105.268.181.398.229.13.047.256.07.38.07M20.847 38.933h.985l-.264-.79a5.043 5.043 0 0 1-.098-.293 14.537 14.537 0 0 1-.057-.187l-.072-.245a13.256 13.256 0 0 1-.124.432 15.853 15.853 0 0 1-.099.293l-.271.79zm1.654 1.154h-.284l-.301-.906h-1.152l-.31.906h-.271l1.011-2.92h.299l1.008 2.92zM22.897 37.166h.314l1.25 2.286c.022.04.042.08.06.119l.068.152v-2.557h.253v2.921h-.314l-1.253-2.293a1.898 1.898 0 0 1-.124-.263v2.556h-.254v-2.92zM25.491 39.78h.332l-.271.91h-.22zM28.138 38.414l1.204 1.673h-.34L27.95 38.62l-.347.385v1.08h-.265v-2.92h.265v1.475l1.314-1.475h.354zM30.611 39.877a.697.697 0 0 0 .58-.274c.142-.182.213-.448.213-.8v-.352c0-.352-.071-.618-.213-.8a.695.695 0 0 0-.58-.274.695.695 0 0 0-.58.274c-.142.182-.212.448-.212.8v.352c0 .352.07.618.212.8a.697.697 0 0 0 .58.274m0-2.755c.169 0 .319.03.45.091a.918.918 0 0 1 .331.261c.091.114.16.251.208.412.048.16.072.34.072.54v.402c0 .2-.024.38-.072.54-.047.161-.117.298-.208.411a.893.893 0 0 1-.332.261c-.13.062-.28.092-.449.092-.169 0-.319-.03-.45-.092a.897.897 0 0 1-.331-.26c-.091-.114-.16-.251-.208-.412a1.878 1.878 0 0 1-.072-.54v-.401c0-.2.024-.38.07-.541.046-.16.115-.298.206-.412a.92.92 0 0 1 .334-.261c.132-.06.282-.09.451-.09M32.495 37.422v1.15h.597c.236 0 .407-.049.511-.147a.547.547 0 0 0 .157-.416v-.04a.53.53 0 0 0-.152-.401c-.103-.097-.26-.146-.475-.146h-.638zm.782 1.402a.364.364 0 0 1-.051.003H32.495v1.26h-.264v-2.92h.94c.136 0 .257.02.362.058.106.04.196.095.27.167.075.07.13.155.168.253a.863.863 0 0 1 .057.316v.06a.79.79 0 0 1-.131.46.772.772 0 0 1-.36.282l.548 1.324H33.8l-.524-1.263zM36.248 37.166v.252h-1.374v1.045h1.295v.251h-1.295v1.122h1.401v.251H34.61v-2.92zM37.264 38.933h.985l-.264-.79a15.858 15.858 0 0 1-.155-.48l-.072-.245a9.992 9.992 0 0 1-.173.583 2.852 2.852 0 0 1-.05.142l-.27.79zm1.654 1.154h-.283l-.302-.906H37.18l-.31.906H36.6l1.012-2.92h.298l1.008 2.92z" fill="#231F20"/>
        <g fill-rule="nonzero">
            <g fill="#0047BA">
                <path d="M21.202 7.39c0-.591.49-1.09 1.07-1.09.58 0 1.07.499 1.07 1.09 0 .593-.49 1.092-1.07 1.092-.611 0-1.07-.499-1.07-1.091z"/>
                <path d="M22.272 11.817a6.498 6.498 0 0 1-4.675-1.964 1.107 1.107 0 0 1 0-1.558 1.055 1.055 0 0 1 1.528 0c1.741 1.776 4.583 1.776 6.355 0a1.055 1.055 0 0 1 1.527 0 1.107 1.107 0 0 1 0 1.558c-1.344 1.31-3.055 1.964-4.735 1.964zM31.193 10.757c0 .592-.49 1.09-1.07 1.09-.58 0-1.069-.498-1.069-1.09 0-.592.489-1.091 1.07-1.091.61 0 1.069.468 1.069 1.09z"/>
                <path d="M26.182 10.165a1.05 1.05 0 0 1-.763-.312 1.107 1.107 0 0 1 0-1.558 6.528 6.528 0 0 1 9.379 0 1.107 1.107 0 0 1 0 1.558c-.428.436-1.1.436-1.528 0-1.741-1.776-4.583-1.776-6.354 0a1.056 1.056 0 0 1-.734.312z"/>
            </g>
            <g fill="#3CB4E5">
                <path d="M21.202 24.907c0-.592.49-1.091 1.07-1.091.58 0 1.07.499 1.07 1.09 0 .593-.49 1.092-1.07 1.092-.611 0-1.07-.5-1.07-1.091z"/>
                <path d="M22.272 29.332a6.498 6.498 0 0 1-4.675-1.963 1.107 1.107 0 0 1 0-1.558 1.055 1.055 0 0 1 1.528 0c1.741 1.776 4.583 1.776 6.355 0a1.055 1.055 0 0 1 1.527 0 1.107 1.107 0 0 1 0 1.558c-1.344 1.309-3.055 1.963-4.735 1.963zM31.193 28.273c0 .592-.49 1.09-1.07 1.09-.58 0-1.069-.498-1.069-1.09 0-.592.489-1.091 1.07-1.091.61 0 1.069.467 1.069 1.09z"/>
                <path d="M26.182 27.68a1.05 1.05 0 0 1-.763-.311 1.107 1.107 0 0 1 0-1.558 6.528 6.528 0 0 1 9.379 0 1.107 1.107 0 0 1 0 1.558c-.428.436-1.1.436-1.528 0-1.741-1.777-4.583-1.777-6.354 0a1.056 1.056 0 0 1-.734.312z"/>
            </g>
            <path d="M25.113 17.832c0-.592.489-1.091 1.07-1.091.58 0 1.069.499 1.069 1.09 0 .593-.49 1.092-1.07 1.092-.58 0-1.069-.499-1.069-1.091z" fill="#B9C6D7"/>
            <g fill="#B9C6D7">
                <path d="M35.134 21.665c0 .593-.489 1.091-1.07 1.091-.58 0-1.069-.498-1.069-1.09 0-.593.489-1.091 1.07-1.091.58 0 1.069.498 1.069 1.09z"/>
                <path d="M30.123 21.073a1.05 1.05 0 0 1-.763-.311 1.107 1.107 0 0 1 0-1.559 6.528 6.528 0 0 1 9.379 0 1.107 1.107 0 0 1 0 1.559c-.428.436-1.1.436-1.528 0-1.741-1.777-4.582-1.777-6.354 0-.184.218-.459.311-.734.311zM19.43 21.665c0 .593-.488 1.091-1.069 1.091-.58 0-1.07-.498-1.07-1.09 0-.593.49-1.091 1.07-1.091.58 0 1.07.498 1.07 1.09z"/>
                <path d="M14.42 21.073a1.05 1.05 0 0 1-.764-.311 1.107 1.107 0 0 1 0-1.559 6.528 6.528 0 0 1 9.38 0 1.107 1.107 0 0 1 0 1.559c-.428.436-1.1.436-1.528 0-1.741-1.777-4.583-1.777-6.355 0-.183.218-.458.311-.733.311z"/>
                <path d="M26.182 22.756a6.498 6.498 0 0 1-4.674-1.963 1.107 1.107 0 0 1 0-1.559 1.055 1.055 0 0 1 1.528 0c1.741 1.777 4.582 1.777 6.354 0a1.055 1.055 0 0 1 1.528 0 1.107 1.107 0 0 1 0 1.559c-1.314 1.278-3.025 1.963-4.736 1.963z"/>
            </g>
            <g fill="#00ADBB">
                <path d="M17.261 13.967c0-.592.49-1.09 1.07-1.09.58 0 1.069.498 1.069 1.09 0 .592-.489 1.091-1.07 1.091-.58 0-1.069-.499-1.069-1.09z"/>
                <path d="M18.33 18.393a6.498 6.498 0 0 1-4.674-1.964 1.107 1.107 0 0 1 0-1.558 1.055 1.055 0 0 1 1.528 0c1.741 1.776 4.583 1.776 6.355 0a1.055 1.055 0 0 1 1.527 0 1.107 1.107 0 0 1 0 1.558c-1.344 1.31-3.024 1.964-4.735 1.964zM32.965 13.967c0-.592.488-1.09 1.069-1.09.58 0 1.07.498 1.07 1.09 0 .592-.49 1.091-1.07 1.091-.58 0-1.07-.499-1.07-1.09z"/>
                <path d="M34.064 18.393a6.498 6.498 0 0 1-4.674-1.964 1.107 1.107 0 0 1 0-1.558 1.055 1.055 0 0 1 1.528 0c1.741 1.776 4.582 1.776 6.354 0a1.055 1.055 0 0 1 1.528 0 1.107 1.107 0 0 1 0 1.558c-1.344 1.31-3.055 1.964-4.736 1.964z"/>
                <path d="M22.272 16.741a1.05 1.05 0 0 1-.764-.312 1.107 1.107 0 0 1 0-1.558 6.528 6.528 0 0 1 9.38 0 1.107 1.107 0 0 1 0 1.558c-.429.437-1.1.437-1.528 0-1.742-1.776-4.583-1.776-6.355 0-.183.218-.458.312-.733.312z"/>
            </g>
        </g>
        <path d="M49.966 15.405c.169-.95.909-1.532 1.987-1.532 1.143 0 1.817.59 1.817 1.598 0 .714-.373 1.37-1.305 2.23l-1.245 1.17h2.726v.817h-3.892v-.817l1.7-1.67c.682-.67 1.078-1.215 1.078-1.752 0-.493-.337-.759-.901-.759-.595 0-1.012.332-1.21.943l-.755-.228zM55.67 17.952c.197.633.556.993 1.032.993a.868.868 0 0 0 .623-.257c.352-.346.558-1.001.558-1.834 0-.434-.052-.809-.147-1.14-.198-.648-.558-1.023-1.034-1.023a.846.846 0 0 0-.623.265c-.351.36-.557 1.038-.557 1.898 0 .42.052.781.147 1.098m2.902.434c-.351.883-1.012 1.376-1.869 1.376-.432 0-.805-.118-1.121-.353-.644-.478-1.011-1.384-1.011-2.555 0-.595.088-1.126.263-1.574.352-.899 1.012-1.406 1.87-1.406.432 0 .805.125 1.128.368.637.493 1.004 1.413 1.004 2.612 0 .582-.088 1.098-.264 1.532M63.234 18.01c0 1.06-.762 1.752-2.016 1.752-.93 0-1.554-.368-1.87-.986l.712-.523c.212.383.652.67 1.187.67.623 0 1.049-.36 1.049-.957 0-.581-.39-.876-1.159-.876h-.828v-.743h.836c.674 0 1.048-.339 1.048-.868 0-.479-.33-.789-.865-.789-.506 0-.939.28-1.143.744l-.718-.28c.197-.765.974-1.28 1.905-1.28 1.084 0 1.76.596 1.76 1.56 0 .538-.346 1.097-.778 1.244.506.06.88.64.88 1.332M64.994 17.952c.197.633.557.993 1.033.993a.868.868 0 0 0 .623-.257c.352-.346.557-1.001.557-1.834 0-.434-.051-.809-.147-1.14-.198-.648-.557-1.023-1.033-1.023a.846.846 0 0 0-.623.265c-.352.36-.557 1.038-.557 1.898 0 .42.05.781.147 1.098m2.902.434c-.352.883-1.012 1.376-1.87 1.376-.432 0-.805-.118-1.12-.353-.645-.478-1.012-1.384-1.012-2.555 0-.595.088-1.126.264-1.574.352-.899 1.012-1.406 1.869-1.406.432 0 .806.125 1.129.368.637.493 1.003 1.413 1.003 2.612 0 .582-.088 1.098-.263 1.532" fill="#002F87"/>
        <mask id="qh5c3nnmeb" fill="#fff">
            <use xlink:href="#vsn13t2s9a"/>
        </mask>
        <path d="M72.118 16.376h3.665v-1.17h-3.665v1.17zm4.618.78h-5.57v-3.724h.952v.994h3.665v-.994h.953v3.725zm-6.084.847h6.597v.78h-2.822v1.568h-.953v-1.568h-2.822v-.78zM84.799 15.434v.78h-.952v2.37h-.954v-5.373h.954v2.223h.952zm-6.01 2.576h.953v1.34h4.25v.78H78.79v-2.12zm-1.173-.868c.477-.28.858-.552 1.144-.825.557-.537.82-1.192.82-2.163v-.722h.998v.619c0 .42-.044.794-.14 1.133.8.677 1.562 1.494 1.884 2.142l-.806.515a9.506 9.506 0 0 0-1.415-1.825c-.403.714-1.055 1.295-1.993 1.825l-.492-.7zM90.444 20.425h.952V13.21h-.952v7.214zm-2.536-4.549h.997v-2.599h.952v7.148h-.952v-3.769h-.997v-.78zm-3.034 3.253c.315-.33.571-.662.762-1 .373-.67.542-1.48.542-2.65v-1.9h.953v1.796c0 .428-.022.825-.066 1.193.624.832 1.231 1.87 1.488 2.672l-.807.515a12.023 12.023 0 0 0-.922-2.046 5.032 5.032 0 0 1-1.24 2.046l-.71-.626zM97.701 20.425h.953V13.21H97.7v7.214zm-5.424-1.37c1.232-.588 2.067-1.766 2.067-3.216v-1.48h-1.722v-.78h2.676v1.259h.938v-1.56h.952v7.147h-.952v-2.746h-1.071v-.78h1.07v-1.281h-.937v.125c0 1.855-.976 3.254-2.676 4.012l-.345-.7zM106.57 15.7h-.952v1.721h-.953v-4.21h.953v1.708h.952v.78zm-5.643.5h1.634v-1.038h-1.634V16.2zm-.513 1.53h5.204v2.62h-.953V18.49h-4.25v-.758zm-.44-4.298h.953v.95h1.634v-.95h.953v3.548h-3.54v-3.548zM108.625 19.52h3.297v-1.105h-3.297v1.104zm-.953.757h5.203v-2.62h-5.203v2.62zm6.156-4.505h-.953v1.554h-.953v-.56c-.923.236-1.905.354-2.94.354h-1.75v-2.23h2.506v-.722h-2.506v-.736h3.459v2.194h-2.507v.757h.858c.887 0 1.993-.132 2.88-.338v-2.834h.953v1.781h.953v.78zM116.41 16.995c.578 0 .951-.427.951-1.097 0-.67-.373-1.097-.952-1.097s-.953.427-.953 1.097c0 .67.374 1.097.953 1.097zm-2.14-2.974h1.64v-.81h.997v.81h1.642v.78h-.535c.198.302.3.663.3 1.097 0 1.17-.776 1.877-1.905 1.877s-1.906-.707-1.906-1.877c0-.434.103-.795.3-1.097h-.534v-.78zm6.009-.81v7.214h-.953v-.817a7.898 7.898 0 0 1-1.81.206h-3.32v-.78h1.737v-.965h.952v.965h.63c.609 0 1.217-.067 1.811-.207v-5.615h.953zM126.51 16.111c1.239 0 1.979-.368 1.979-.986s-.74-.986-1.979-.986-1.979.368-1.979.986.74.986 1.98.986zm-2.931-.986c0-1.097 1.07-1.766 2.931-1.766 1.862 0 2.932.67 2.932 1.766 0 1.097-1.07 1.767-2.932 1.767-1.862 0-2.931-.67-2.931-1.767zm-.367 2.583h6.596v.78h-1.502v1.863h-.953V18.49h-1.685v1.862h-.954V18.49h-1.502v-.78zM135.6 20.425h.952V13.21h-.953v7.214zm-.645-1.185-.806.515c-.316-.729-.763-1.443-1.335-2.15-.38.877-1.047 1.524-2.074 2.15l-.49-.7c.49-.316.879-.618 1.157-.905.558-.574.828-1.302.828-2.45v-.825h-1.56v-.78h1.539v-.884h.997v.883h1.539v.78h-1.561v.722c0 .413-.03.78-.096 1.104.791.788 1.54 1.737 1.862 2.54zM138.24 18.533h4.617v-.31h-4.617v-.676h5.57v1.685h-4.618v.346h4.691v.7h-5.643v-1.745zm0-2.444v-1.722h4.617v-.309h-4.617v-.7h5.57v1.708h-4.618v.346h4.691v.677h-5.643zm-.513 1.09h6.596v-.736h-6.596v.736zM57.938 24.02v8.83h-1.636v-4.2h-.72v4.152h-1.59v-1.108c-.72.178-1.384.225-2.394.225h-1.702v-7.617h3.638v1.269h-2.001v5.08c1 0 1.683-.056 2.46-.225v-6.358h1.589v3.24h.72V24.02h1.636zM64.954 24.02h1.683v2.452h1.122v1.315h-1.122v2.827h-1.683v-6.593zm-3.367 4.35c.59 0 .935-.348.935-.94 0-.591-.345-.94-.935-.94-.59 0-.935.349-.935.94 0 .592.346.94.935.94zm-1.786 1.69h1.72v1.483h5.303v1.306H59.8v-2.79zm1.786-.423c-1.646 0-2.618-.817-2.618-2.207 0-.6.187-1.099.524-1.465h-.618v-1.268h1.843v-.958h1.739v.958h1.842v1.268h-.617c.337.366.523.864.523 1.465 0 1.39-.972 2.207-2.618 2.207zM74.4 24.02h1.683v1.954h1.122v1.315h-1.122v2.057H74.4V24.02zm-1.777 7.75c1.179 0 1.87-.189 1.87-.527s-.691-.526-1.87-.526c-1.16 0-1.85.188-1.85.526s.69.526 1.85.526zm-1.59-3.87c.552 0 .936-.348.936-.846s-.384-.845-.935-.845c-.553 0-.935.347-.935.845s.382.846.935.846zm1.59 1.55c2.291 0 3.647.656 3.647 1.793 0 1.136-1.356 1.794-3.647 1.794-2.282 0-3.628-.658-3.628-1.794 0-1.137 1.346-1.793 3.628-1.793zm-1.59-.283c-1.552 0-2.618-.854-2.618-2.113 0-.413.122-.788.327-1.089h-.42v-1.268h1.842v-.958h1.74v.958h1.842v1.268h-.422c.206.3.328.676.328 1.09 0 1.258-1.066 2.112-2.618 2.112zM81.882 31.675c1.234 0 1.964-.225 1.964-.601 0-.375-.73-.601-1.964-.601s-1.964.226-1.964.6c0 .377.73.602 1.964.602zm0-2.47c2.347 0 3.74.695 3.74 1.869s-1.393 1.869-3.74 1.869c-2.347 0-3.74-.695-3.74-1.87 0-1.173 1.393-1.868 3.74-1.868zm4.227-.432h-8.454v-1.267h2.684v-1.428h1.778v1.428h1.439c.112-.63.168-1.287.168-2.17H78.31v-1.315h7.144v1.315c0 .733-.084 1.38-.215 2.17h.87v1.267zM93.199 32.849h1.683V24.02h-1.683v8.828zm-3.553-2.057c.589 0 .935-.873.935-2.685 0-1.813-.346-2.687-.935-2.687-.59 0-.936.874-.936 2.687 0 1.812.346 2.685.936 2.685zm0-6.677c1.664 0 2.618 1.484 2.618 3.992 0 2.507-.954 3.99-2.618 3.99-1.73 0-2.619-1.483-2.619-3.99 0-2.508.888-3.992 2.619-3.992zM103.114 31.675c1.365 0 1.963-.188 1.963-.507 0-.32-.598-.507-1.963-.507-1.366 0-1.964.188-1.964.507 0 .32.598.507 1.964.507zm0-5.466c1.365 0 2.056-.188 2.056-.507 0-.32-.691-.507-2.056-.507-1.366 0-2.058.188-2.058.507 0 .32.692.507 2.058.507zm0 3.184c2.477 0 3.74.62 3.74 1.775 0 1.155-1.263 1.775-3.74 1.775-2.479 0-3.74-.62-3.74-1.775 0-1.155 1.261-1.775 3.74-1.775zm0-5.466c2.477 0 3.74.62 3.74 1.775 0 1.155-1.263 1.775-3.74 1.775-2.479 0-3.74-.62-3.74-1.775 0-1.155 1.261-1.775 3.74-1.775zm-4.228 5.146h8.454v-1.268h-8.454v1.268zM111.157 26.266c.59 0 .935-.207.935-.499 0-.29-.346-.497-.935-.497-.59 0-.935.207-.935.497 0 .292.345.499.935.499zm-2.618-.499c0-1.089.972-1.746 2.618-1.746 1.637 0 2.618.648 2.618 1.746 0 1.09-.972 1.748-2.618 1.748s-2.618-.658-2.618-1.748zm-.3 2.208h3.648c1.224 0 2.02-.113 2.637-.3V24.02h1.683v6.875h-1.683v-.338h-1.721v-1.061h1.72v-.564c-.589.178-1.337.29-2.477.3v1.55h-1.6v.76h5.948v1.306h-7.584v-2.696h1.58v-.92h-2.15v-1.258zM123.502 24.02h1.684v1.945h1.121v1.315h-1.121v1.643h-1.684v-4.902zm-3.553 7.56h3.572v-.516h-3.572v.517zm.187-3.868c.589 0 .935-.3.935-.751s-.346-.752-.935-.752c-.59 0-.935.3-.935.752 0 .45.346.75.935.75zm-1.87 1.559h1.683v.526h3.572v-.526h1.665v3.578h-6.92v-3.578zm1.87-.291c-1.553 0-2.619-.79-2.619-2.02 0-.385.103-.713.29-.995h-.384v-1.268h1.843v-.958h1.74v.958h1.842v1.268h-.384c.187.282.29.61.29.996 0 1.23-1.066 2.019-2.618 2.019zM134.725 24.02v8.83h-1.683v-1.475c-1.263.366-2.488.544-4.302.544h-1.683v-7.617h1.683v6.33c1.796 0 3.058-.178 4.302-.535v-6.076h1.683zM144.826 28.604h-1.122v4.245h-1.683v-1.474c-1.197.347-2.385.544-4.115.544h-1.683v-7.616h4.787v1.268h-3.104v5.061c1.711 0 2.927-.168 4.115-.507v-6.104h1.683v3.268h1.122v1.315z" fill="#002F87" mask="url(#qh5c3nnmeb)"/>
    </g>
</svg>
