<svg width="16" height="16" viewBox="0 0 16 16" xmlns="http://www.w3.org/2000/svg">
    <path d="M13.262 8.968V7.442C13.262 4.35 10.833 2 7.74 2c-3.093 0-5.5 2.35-5.5 5.442v1.526c-.837.296-1.239 1.087-1.241 1.974v1.4c0 1.16.94 1.955 2.1 1.955h1.58a.7.7 0 0 0 .7-.7V9.542a.7.7 0 0 0-.7-.7H3.485v-1.4c0-2.32 1.935-4.27 4.255-4.27s4.283 1.95 4.283 4.27v1.4h-1.26a.7.7 0 0 0-.7.7v4.055a.7.7 0 0 0 .7.7h1.583c1.16 0 2.1-.795 2.1-1.955v-1.4c-.003-.887-.348-1.678-1.185-1.974zM4.24 10.242v2.8h-1.4a.7.7 0 0 1-.7-.7v-1.4a.7.7 0 0 1 .7-.7h1.4zm9.1 2.1a.7.7 0 0 1-.7.7h-1.4v-2.8h1.4a.7.7 0 0 1 .7.7v1.4z" fill="#000" fill-rule="nonzero"/>
</svg>
